HIERARCHY
ROOT Hips
{
	OFFSET 0.00000 0.00000 0.00000
	CHANNELS 6 Xposition Yposition Zposition Zrotation Yrotation Xrotation 
	JOINT LHipJoint
	{
		OFFSET 0 0 0
		CHANNELS 3 Zrotation Yrotation Xrotation
		JOINT LeftUpLeg
		{
			OFFSET 1.48831 -1.59570 0.95625
			CHANNELS 3 Zrotation Yrotation Xrotation
			JOINT LeftLeg
			{
				OFFSET 2.20856 -6.06797 0.00000
				CHANNELS 3 Zrotation Yrotation Xrotation
				JOINT LeftFoot
				{
					OFFSET 2.62924 -7.22379 0.00000
					CHANNELS 3 Zrotation Yrotation Xrotation
					JOINT LeftToeBase
					{
						OFFSET 0.16802 -0.46163 2.41673
						CHANNELS 3 Zrotation Yrotation Xrotation
						End Site
						{
							OFFSET 0.00000 -0.00000 1.23760
						}
					}
				}
			}
		}
	}
	JOINT RHipJoint
	{
		OFFSET 0 0 0
		CHANNELS 3 Zrotation Yrotation Xrotation
		JOINT RightUpLeg
		{
			OFFSET -1.56796 -1.59570 0.95625
			CHANNELS 3 Zrotation Yrotation Xrotation
			JOINT RightLeg
			{
				OFFSET -2.29239 -6.29829 0.00000
				CHANNELS 3 Zrotation Yrotation Xrotation
				JOINT RightFoot
				{
					OFFSET -2.66963 -7.33475 0.00000
					CHANNELS 3 Zrotation Yrotation Xrotation
					JOINT RightToeBase
					{
						OFFSET -0.18185 -0.49964 2.34359
						CHANNELS 3 Zrotation Yrotation Xrotation
						End Site
						{
							OFFSET -0.00000 -0.00000 1.20477
						}
					}
				}
			}
		}
	}
	JOINT LowerBack
	{
		OFFSET 0 0 0
		CHANNELS 3 Zrotation Yrotation Xrotation
		JOINT Spine
		{
			OFFSET 0.03505 2.15832 -0.34324
			CHANNELS 3 Zrotation Yrotation Xrotation
			JOINT Spine1
			{
				OFFSET -0.01089 2.17963 0.04689
				CHANNELS 3 Zrotation Yrotation Xrotation
				JOINT Neck
				{
					OFFSET 0 0 0
					CHANNELS 3 Zrotation Yrotation Xrotation
					JOINT Neck1
					{
						OFFSET 0.04686 1.69404 0.22159
						CHANNELS 3 Zrotation Yrotation Xrotation
						JOINT Head
						{
							OFFSET 0.00265 1.69305 -0.01513
							CHANNELS 3 Zrotation Yrotation Xrotation
							End Site
							{
								OFFSET -0.00415 1.80215 -0.03034
							}
						}
					}
				}
				JOINT LeftShoulder
				{
					OFFSET 0 0 0
					CHANNELS 3 Zrotation Yrotation Xrotation
					JOINT LeftArm
					{
						OFFSET 3.67184 1.11724 -0.19002
						CHANNELS 3 Zrotation Yrotation Xrotation
						JOINT LeftForeArm
						{
							OFFSET 5.17714 -0.00000 -0.00000
							CHANNELS 3 Zrotation Yrotation Xrotation
							JOINT LeftHand
							{
								OFFSET 3.43679 -0.00000 -0.00000
								CHANNELS 3 Zrotation Yrotation Xrotation
								JOINT LeftFingerBase
								{
									OFFSET 0 0 0
									CHANNELS 3 Zrotation Yrotation Xrotation
									JOINT LeftHandIndex1
									{
										OFFSET 0.57312 -0.00000 -0.00000
										CHANNELS 3 Zrotation Yrotation Xrotation
										End Site
										{
											OFFSET 0.46206 -0.00000 -0.00000
										}
									}
								}
								JOINT LThumb
								{
									OFFSET 0 0 0
									CHANNELS 3 Zrotation Yrotation Xrotation
									End Site
									{
										OFFSET 0.46912 -0.00000 0.46912
									}
								}
							}
						}
					}
				}
				JOINT RightShoulder
				{
					OFFSET 0 0 0
					CHANNELS 3 Zrotation Yrotation Xrotation
					JOINT RightArm
					{
						OFFSET -3.59596 0.95831 -0.26050
						CHANNELS 3 Zrotation Yrotation Xrotation
						JOINT RightForeArm
						{
							OFFSET -5.23908 -0.00000 -0.00000
							CHANNELS 3 Zrotation Yrotation Xrotation
							JOINT RightHand
							{
								OFFSET -3.46485 -0.00000 -0.00000
								CHANNELS 3 Zrotation Yrotation Xrotation
								JOINT RightFingerBase
								{
									OFFSET 0 0 0
									CHANNELS 3 Zrotation Yrotation Xrotation
									JOINT RightHandIndex1
									{
										OFFSET -0.60875 -0.00000 -0.00000
										CHANNELS 3 Zrotation Yrotation Xrotation
										End Site
										{
											OFFSET -0.49079 -0.00000 -0.00000
										}
									}
								}
								JOINT RThumb
								{
									OFFSET 0 0 0
									CHANNELS 3 Zrotation Yrotation Xrotation
									End Site
									{
										OFFSET -0.49829 -0.00000 0.49829
									}
								}
							}
						}
					}
				}
			}
		}
	}
}
MOTION
Frames: 6
Frame Time: .0083333
3.0534 15.7556 -23.0611 -545.7390 -41.4993 537.9330 0.0000 0.0000 0.0000 -25.0309 23.3234 -7.5890 2.4956 9.8300 28.4279 1.2429 -14.3316 -20.9301 0.0180 -0.8667 -2.3820 0.0000 0.0000 0.0000 9.0338 3.1551 -22.5404 -7.7734 -15.9500 51.7424 -1.7595 -6.8694 -28.3246 -0.0077 0.5649 -1.5523 -0.2923 3.4094 -5.6528 -6.0374 4.4374 -1.4390 -5.7695 2.1191 2.1411 -4.5140 0.3889 -0.2468 11.1268 -5.2228 31.9843 4.1939 -2.9722 10.6361 0.0000 -0.0000 0.0000 -87.3136 11.1511 -26.4626 11.9853 -19.7825 -2.0973 -0.0000 0.0000 -23.8952 16.7543 10.5613 3.1583 -7.1250 0.0000 -0.0000 -9.1097 40.8294 0.9458 0.0000 -0.0000 0.0000 94.1409 27.2271 48.4403 -160.1769 30.4287 -114.5585 0.0000 -0.0000 -29.2248 15.0251 -36.8629 -9.1475 7.1250 -0.0000 -0.0000 54.3279 -58.4157 -21.8359
3.0513 15.7544 -23.0646 -545.7570 -41.3961 537.9190 0.0000 0.0000 0.0000 -25.0457 23.3595 -7.5290 2.4888 9.8175 28.3878 1.2513 -14.2483 -20.9679 0.0187 -0.8835 -2.4283 0.0000 0.0000 0.0000 9.0188 3.1614 -22.5396 -7.7817 -15.9563 51.7725 -1.7580 -6.8140 -28.2813 -0.0080 0.5782 -1.5890 -0.2776 3.4344 -5.7096 -6.0715 4.4704 -1.4378 -5.8082 2.1351 2.1813 -4.4363 0.3470 -0.2824 11.0282 -5.2622 31.9921 4.1390 -2.9891 10.6469 0.0000 0.0000 0.0000 -87.1822 10.9838 -26.1630 12.0389 -19.8630 -2.1155 -0.0000 0.0000 -23.9235 16.7317 10.5125 3.1394 -7.1250 0.0000 -0.0000 -9.1200 40.7773 0.9587 0.0000 0.0000 0.0000 94.1608 27.3383 48.2887 -160.1842 30.4197 -114.5623 0.0000 -0.0000 -29.2332 15.1258 -36.8865 -9.2156 7.1250 -0.0000 -0.0000 54.4421 -58.4076 -21.8904
3.0492 15.7529 -23.0678 -545.8280 -41.3038 537.9430 0.0000 0.0000 0.0000 -25.1065 23.3951 -7.4648 2.4790 9.7996 28.3301 1.2584 -14.1648 -20.9963 0.0195 -0.9018 -2.4786 0.0000 0.0000 0.0000 8.9543 3.1505 -22.5554 -7.7932 -15.9650 51.8144 -1.7559 -6.7517 -28.2302 -0.0085 0.5970 -1.6404 -0.2852 3.4836 -5.7650 -6.1442 4.5353 -1.4325 -5.8723 2.1660 2.2297 -4.3057 0.2760 -0.3265 10.9393 -5.3495 31.9845 4.0733 -3.0201 10.6579 0.0000 -0.0000 0.0000 -86.9829 10.8047 -25.7332 12.1033 -19.9593 -2.1374 -0.0000 0.0000 -23.9850 16.6983 10.4725 3.1210 -7.1250 0.0000 -0.0000 -9.1415 40.7333 0.9710 0.0000 -0.0000 0.0000 94.1879 27.4511 48.0543 -160.2044 30.3953 -114.5725 0.0000 -0.0000 -29.2336 15.2449 -36.9126 -9.2959 7.1250 -0.0000 -0.0000 54.5747 -58.3968 -21.9519
3.0472 15.7514 -23.0707 -545.9340 -41.2180 537.9920 0.0000 0.0000 0.0000 -25.1978 23.4348 -7.3946 2.4661 9.7760 28.2543 1.2638 -14.0853 -21.0150 0.0203 -0.9202 -2.5292 0.0000 0.0000 0.0000 8.8552 3.1265 -22.5829 -7.8077 -15.9760 51.8670 -1.7537 -6.6830 -28.1739 -0.0092 0.6193 -1.7019 -0.3082 3.5520 -5.8147 -6.2452 4.6252 -1.4266 -5.9556 2.2086 2.2795 -4.1309 0.1814 -0.3788 10.8547 -5.4762 31.9692 3.9974 -3.0633 10.6708 0.0000 0.0000 0.0000 -86.7265 10.6057 -25.2501 12.1648 -20.0513 -2.1585 -0.0000 0.0000 -24.0220 16.6389 10.4184 3.0934 -7.1250 0.0000 -0.0000 -9.1828 40.6728 0.9893 0.0000 0.0000 0.0000 94.2179 27.5584 47.7532 -160.2373 30.3554 -114.5891 0.0000 -0.0000 -29.2315 15.3883 -36.9379 -9.3915 7.1250 -0.0000 -0.0000 54.7271 -58.3797 -22.0163
3.0451 15.7495 -23.0733 -546.0750 -41.1392 538.0650 0.0000 0.0000 0.0000 -25.3185 23.4835 -7.3186 2.4503 9.7470 28.1614 1.2673 -14.0152 -21.0219 0.0210 -0.9357 -2.5719 0.0000 0.0000 0.0000 8.7211 3.0887 -22.6200 -7.8252 -15.9892 51.9308 -1.7514 -6.6069 -28.1139 -0.0099 0.6434 -1.7681 -0.3563 3.6202 -5.8584 -6.3557 4.7149 -1.4247 -6.0353 2.2503 2.3209 -3.9519 0.0828 -0.4345 10.7718 -5.6116 31.9590 3.9205 -3.1100 10.6869 0.0000 0.0000 0.0000 -86.4603 10.4035 -24.7751 12.2269 -20.1441 -2.1798 -0.0000 0.0000 -24.0428 16.5654 10.3594 3.0618 -7.1250 0.0000 -0.0000 -9.2355 40.6058 1.0105 0.0000 0.0000 0.0000 94.2420 27.6522 47.4373 -160.2803 30.3032 -114.6108 0.0000 -0.0000 -29.2337 15.5523 -36.9649 -9.5006 7.1250 -0.0000 -0.0000 54.8989 -58.3589 -22.0869
3.0431 15.7476 -23.0756 -546.2300 -41.0634 538.1430 0.0000 0.0000 0.0000 -25.4482 23.5413 -7.2380 2.4333 9.7156 28.0606 1.2694 -13.9545 -21.0218 0.0216 -0.9492 -2.6090 0.0000 0.0000 0.0000 8.5733 3.0402 -22.6593 -7.8437 -16.0031 51.9978 -1.7491 -6.5262 -28.0505 -0.0107 0.6688 -1.8380 -0.4252 3.6659 -5.8997 -6.4480 4.7755 -1.4290 -6.0868 2.2770 2.3482 -3.8150 0.0046 -0.4778 10.6856 -5.7134 31.9551 3.8534 -3.1474 10.6997 0.0000 -0.0000 0.0000 -86.2385 10.2077 -24.3938 12.2886 -20.2361 -2.2011 -0.0000 0.0000 -24.0313 16.4784 10.2845 3.0231 -7.1250 0.0000 -0.0000 -9.2966 40.5215 1.0368 0.0000 -0.0000 0.0000 94.2525 27.7347 47.1704 -160.3265 30.2469 -114.6341 0.0000 -0.0000 -29.2561 15.7290 -37.0046 -9.6207 7.1250 -0.0000 -0.0000 55.0963 -58.3432 -22.1796
